<svg viewBox="-574.4960436010651 -602.7583139031148 1210.9527474269912 1195.887031473736" xmlns="http://www.w3.org/2000/svg"><defs><pattern id="grid" width="80" height="auto" patternUnits="userSpaceOnUse"><path d="M 80 0 L 0 0 0 80" fill="none" stroke="rgba(255,255,255,0.08)" stroke-width="1.5"/></pattern></defs><style>text{font-family:"Segoe UI",sans-serif;fill:#ffffff;font-size:15px;letter-spacing:1.5px;pointer-events:none;}.node{transform-origin:center;transform-box:fill-box;}.line{stroke-dasharray:1000;stroke-dashoffset:1000;}.hidden-node{opacity:0;pointer-events:none;transform:scale(0.5);transition:all 0.5s cubic-bezier(0.175,0.885,0.32,1.275);}.revealed-node{opacity:1;pointer-events:auto;transform:scale(1);}.hidden-line{opacity:0;}.revealed-line{opacity:1!important;animation:dL 1.5s forwards;}.skill-line{transition:all .4s;stroke-opacity:.15;}@keyframes dL{to{stroke-dashoffset:0;}}.energy{stroke-dasharray:6 12;animation:fL 3s linear infinite;}@keyframes fL{to{stroke-dashoffset:-36;}}.interactive{cursor:pointer;}.locked{filter:grayscale(1) brightness(.5);transition:all .4s;}.locked:hover{filter:grayscale(.2) brightness(1);transform:scale(1.08);}.unlocked{filter:none;}.unlocked-anim{animation:uP .8s forwards;}@keyframes uP{0%{transform:scale(1);}50%{transform:scale(1.5);}100%{transform:scale(1);}}.unlocked .hex-bg{fill:var(--skill-color)!important;fill-opacity:.2!important;}.unlocked .hex-border{stroke-opacity:1!important;stroke-width:3.5!important;}.unlocked .skill-text{fill:#fff !important;font-weight:bold;text-shadow:none;}.unlocked .lock-icon{opacity:0;}.hud-box{fill:rgba(0,0,15,.96);stroke:#58a6ff;stroke-width:1.5;}.skill.locked .hex-border { stroke: #444 !important; }
        .skill.locked .skill-text { fill: #fff !important; }
        .revealed-line.join-line, .join-line.energy { 
            animation-name: flow;
            animation-duration: var(--anim-speed, 0.6s);
            animation-timing-function: linear;
            animation-iteration-count: infinite;
        }
        @keyframes flow { to { stroke-dashoffset: -40; } }
    </style><rect x="-574.4960436010651" y="-602.7583139031148" width="1210.9527474269912" height="1195.887031473736" fill="transparent"/><rect x="-574.4960436010651" y="-602.7583139031148" width="1210.9527474269912" height="1195.887031473736" fill="url(#grid)"/><g id="core-node" class="node interactive" onclick="handleClick(this)"><path d="M 3.980102097228898e-15,-65 L 61.81867355918498,-20.08610463437158 L 38.20604139901075,52.58610463437159 L -38.20604139901074,52.58610463437159 L -61.81867355918499,-20.086104634371573 Z" fill="#000" stroke="#58a6ff" stroke-width="4" /><path d="M 3.4228878036168522e-15,-55.9 L 53.16405926089908,-17.274049985559557 L 32.85719560314925,45.22404998555956 L -32.85719560314924,45.22404998555956 L -53.16405926089909,-17.274049985559554 Z" fill="none" stroke="#58a6ff" stroke-opacity=".5" stroke-width="2" class="energy" /><text x="0" y="0" alignment-baseline="middle" font-weight="bold" fill="#fff" style="font-size:18px;letter-spacing:3px;"><tspan x="0" dy="-10.799999999999999" text-anchor="middle">TECH</tspan><tspan x="0" dy="1.2em" text-anchor="middle">STACK</tspan></text></g><path class="line cat-line revealed-line" d="M 3.980102097228898e-15 -65 L 2.4492935982947064e-14 -230" stroke="#3498db" stroke-opacity=".5" stroke-width="3" fill="none"/><path class="line cat-line revealed-line" d="M 61.81867355918498 -20.08610463437158 L 202.64189241212108 -100.72560440825102" stroke="#9b59b6" stroke-opacity=".5" stroke-width="3" fill="none"/><path class="line cat-line revealed-line" d="M 38.20604139901075 52.58610463437159 L 129.90054075663656 178.79275575686341" stroke="#e67e22" stroke-opacity=".5" stroke-width="3" fill="none"/><path class="line cat-line revealed-line" d="M -38.20604139901074 52.58610463437159 L -115.79369470161718 159.37634789186464" stroke="#1abc9c" stroke-opacity=".5" stroke-width="3" fill="none"/><path class="line cat-line revealed-line" d="M -61.81867355918499 -20.086104634371573 L -218.74299874788537 -71.07390870623789" stroke="#2ecc71" stroke-opacity=".5" stroke-width="3" fill="none"/><g class="node cat-node revealed-node interactive" data-name="Frontend" onclick="handleClick(this)"><path d="M 2.4492935982947064e-14,-230 L -80.83980388508803,-288.73355547812946 L -49.961746444860204,-383.76644452187054 L 49.96174644486022,-383.76644452187054 L 80.83980388508807,-288.73355547812946 Z" fill="#000" stroke="#3498db" stroke-width="4" /><text x="1.9288187086570814e-14" y="-309.6666666666667" text-anchor="middle" font-weight="bold" fill="#3498db" style="font-size:16px;">FRONTEND</text></g><g class="node cat-node revealed-node interactive" data-name="Frameworks" onclick="handleClick(this)"><path d="M 202.64189241212108,-100.72560440825102 L 302.9680538131159,-194.28126344896071 L 396.52371285382566,-93.9551020479659 L 296.19755145283085,-0.39944300725613857 Z" fill="#000" stroke="#9b59b6" stroke-width="4" /><text x="299.58280263297337" y="-92.0070198947751" text-anchor="middle" font-weight="bold" fill="#9b59b6" style="font-size:16px;">FRAMEWORKS</text></g><g class="node cat-node revealed-node interactive" data-name="Backend" onclick="handleClick(this)"><path d="M 129.90054075663656,178.79275575686341 L 278.6374126367467,245.01467768094895 L 146.9191100230038,340.71362624651294 Z" fill="#000" stroke="#e67e22" stroke-width="4" /><text x="185.15235447212905" y="260.1736865614418" text-anchor="middle" font-weight="bold" fill="#e67e22" style="font-size:16px;">BACKEND</text></g><g class="node cat-node revealed-node interactive" data-name="Databases" onclick="handleClick(this)"><path d="M -115.79369470161718,159.37634789186464 L -137.15743058918446,362.6387172299353 L -302.50593812558526,242.50599456252533 Z" fill="#000" stroke="#1abc9c" stroke-width="4" /><text x="-185.152354472129" y="260.1736865614418" text-anchor="middle" font-weight="bold" fill="#1abc9c" style="font-size:16px;">DATABASES</text></g><g class="node cat-node revealed-node interactive" data-name="Tools" onclick="handleClick(this)"><path d="M -218.74299874788537,-71.07390870623789 L -362.75011279855187,-40.46425168760539 L -317.25529635248296,-180.4828992904819 Z" fill="#000" stroke="#2ecc71" stroke-width="4" /><text x="-299.5828026329734" y="-92.00701989477507" text-anchor="middle" font-weight="bold" fill="#2ecc71" style="font-size:16px;">TOOLS</text></g><path data-link="TS" data-parent="Frontend" class="skill-line-base line revealed-line" style="stroke-dasharray: none; animation: none; " d="M -80.83980388508803 -288.73355547812946 L -150.68269093114847 -264.059171720576" stroke="#3178c6" stroke-width="3.5" stroke-opacity="0.15" fill="none"/><path data-link="HTML" data-parent="Frontend" class="skill-line-base line revealed-line" style="stroke-dasharray: none; animation: none; " d="M -49.961746444860204 -383.76644452187054 L -93.96937248839461 -443.26884030871105" stroke="#e34f26" stroke-width="3.5" stroke-opacity="0.15" fill="none"/><path data-link="CSS" data-parent="Frontend" class="skill-line-base line revealed-line" style="stroke-dasharray: none; animation: none; " d="M 49.96174644486022 -383.76644452187054 L 83.44120966079245 -454.75831390311475" stroke="#1572b6" stroke-width="3.5" stroke-opacity="0.15" fill="none"/><path data-link="Astro" data-parent="Frontend" class="skill-line-base line revealed-line" style="stroke-dasharray: none; animation: none; " d="M 80.83980388508807 -288.73355547812946 L 208.02639179745768 -301.47797025897324" stroke="#3498db" stroke-width="3.5" stroke-opacity="0.15" fill="none"/><path data-link="Astro" data-parent="Frameworks" class="skill-line-base line revealed-line" style="stroke-dasharray: none; animation: none; " d="M 302.9680538131159 -194.28126344896071 L 284.23662733048826 -257.47797025897324" stroke="#9b59b6" stroke-width="3.5" stroke-opacity="0.15" fill="none"/><path data-link="Tauri" data-parent="Frameworks" class="skill-line-base line revealed-line" style="stroke-dasharray: none; animation: none; " d="M 296.19755145283085 -0.39944300725613857 L 292.35860681555585 65.5335479648444" stroke="#ffc131" stroke-width="3.5" stroke-opacity="0.15" fill="none"/><path data-link="Tailwind" data-parent="Frameworks" class="skill-line-base line revealed-line" style="stroke-dasharray: none; animation: none; " d="M 396.52371285382566 -93.9551020479659 L 451.0310779837221 -58.11615741069084" stroke="#38bdf8" stroke-width="3.5" stroke-opacity="0.15" fill="none"/><path data-link="Rust" data-parent="Backend" class="skill-line-base line revealed-line" style="stroke-dasharray: none; animation: none; " d="M 278.6374126367467 245.01467768094895 L 355.9918811872326 252.01654672150698" stroke="#dea584" stroke-width="3.5" stroke-opacity="0.15" fill="none"/><path data-link="Python" data-parent="Backend" class="skill-line-base line revealed-line" style="stroke-dasharray: none; animation: none; " d="M 146.9191100230038 340.71362624651294 L 121.61851932473795 399.51346838351316" stroke="#e67e22" stroke-width="3.5" stroke-opacity="0.15" fill="none"/><path data-link="Supabase" data-parent="Databases" class="skill-line-base line revealed-line" style="stroke-dasharray: none; animation: none; " d="M -137.15743058918446 362.6387172299353 L -116.50564077006624 411.4691737095323" stroke="#3ecf8e" stroke-width="3.5" stroke-opacity="0.15" fill="none"/><path data-link="SurrealDB" data-parent="Databases" class="skill-line-base line revealed-line" style="stroke-dasharray: none; animation: none; " d="M -302.50593812558526 242.50599456252533 L -349.14308063631535 236.4986753961859" stroke="#ff00a0" stroke-width="3.5" stroke-opacity="0.15" fill="none"/><path data-link="Bun" data-parent="Tools" class="skill-line-base line revealed-line" style="stroke-dasharray: none; animation: flow 1s linear infinite normal; " d="M -362.75011279855187 -40.46425168760539 L -419.04019947834945 7.684270889153375" stroke="#2ecc71" stroke-width="3.5" stroke-opacity="0.15" fill="none"/><path data-link="Git" data-parent="Tools" class="skill-line-base line revealed-line" style="stroke-dasharray: none; animation: none; " d="M -317.25529635248296 -180.4828992904819 L -330.80809671874573 -253.3058056247941" stroke="#2ecc71" stroke-width="3.5" stroke-opacity="0.15" fill="none"/><path id="epic-join-Tailwind--0" data-link="Tailwind" data-source="Tailwind" class="join-line skill-line line revealed-line" style="animation: none; stroke-dasharray: 8 6;" d="M 506.4567038259262 -154.11615741069085 Q 435.77525753977113 -406.7945123536164, 145.79503873327204 -454.75831390311475" stroke="#38bdf8" stroke-opacity="0.1" stroke-width="3" filter="drop-shadow(0 0 6px #38bdf8)" fill="none"/><path id="epic-join-Rust--0" data-link="Rust" data-source="Rust" class="join-line skill-line line revealed-line" style="animation: none; stroke-dasharray: 8 6;" d="M 388.0348211272568 196.51654672150698 Q 340.1967139714063 175.0250473431757, 292.35860681555585 153.5335479648444" stroke="#dea584" stroke-opacity="0.1" stroke-width="3" filter="drop-shadow(0 0 6px #dea584)" fill="none"/><g class="node skill revealed-node interactive unlocked energy" style="--skill-color:#3178c6" data-skill-id="TS" data-name="TS" data-color="#3178c6" data-level="80" data-rarity="common" data-parents="Frontend" onclick="handleClick(this)"><path class="hex-bg" d="M -149.5930115462521,-251.60407935796954 L -150.68269093114847,-245.4242004731945 L -152.82894034423555,-239.52742867422006 L -155.96654708315123,-234.09293438824758 L -160.00017655483921,-229.28584197416953 L -164.80726896891727,-225.25221250248154 L -170.24176325488975,-222.11460576356586 L -176.1385350538642,-219.96835635047879 L -182.31841393863922,-218.8786769655824 L -188.5936274164706,-218.8786769655824 L -194.77350630124567,-219.96835635047879 L -200.67027810022012,-222.11460576356586 L -206.1047723861926,-225.25221250248154 L -210.91186480027065,-229.28584197416953 L -214.94549427195864,-234.09293438824758 L -218.08310101087432,-239.52742867422006 L -220.2293504239614,-245.4242004731945 L -221.31902980885778,-251.60407935796954 L -221.31902980885778,-257.8792928358009 L -220.2293504239614,-264.059171720576 L -218.08310101087432,-269.95594351955043 L -214.94549427195864,-275.3904378055229 L -210.91186480027065,-280.19753021960094 L -206.1047723861926,-284.23115969128895 L -200.67027810022012,-287.36876643020463 L -194.77350630124567,-289.51501584329174 L -188.59362741647064,-290.60469522818806 L -182.31841393863925,-290.60469522818806 L -176.1385350538642,-289.51501584329174 L -170.24176325488975,-287.36876643020463 L -164.8072689689173,-284.23115969128895 L -160.00017655483924,-280.19753021960094 L -155.96654708315123,-275.39043780552294 L -152.82894034423555,-269.95594351955043 L -150.68269093114847,-264.059171720576 L -149.5930115462521,-257.8792928358009 Z" fill="#000"/><path class="hex-border" d="M -149.5930115462521,-251.60407935796954 L -150.68269093114847,-245.4242004731945 L -152.82894034423555,-239.52742867422006 L -155.96654708315123,-234.09293438824758 L -160.00017655483921,-229.28584197416953 L -164.80726896891727,-225.25221250248154 L -170.24176325488975,-222.11460576356586 L -176.1385350538642,-219.96835635047879 L -182.31841393863922,-218.8786769655824 L -188.5936274164706,-218.8786769655824 L -194.77350630124567,-219.96835635047879 L -200.67027810022012,-222.11460576356586 L -206.1047723861926,-225.25221250248154 L -210.91186480027065,-229.28584197416953 L -214.94549427195864,-234.09293438824758 L -218.08310101087432,-239.52742867422006 L -220.2293504239614,-245.4242004731945 L -221.31902980885778,-251.60407935796954 L -221.31902980885778,-257.8792928358009 L -220.2293504239614,-264.059171720576 L -218.08310101087432,-269.95594351955043 L -214.94549427195864,-275.3904378055229 L -210.91186480027065,-280.19753021960094 L -206.1047723861926,-284.23115969128895 L -200.67027810022012,-287.36876643020463 L -194.77350630124567,-289.51501584329174 L -188.59362741647064,-290.60469522818806 L -182.31841393863925,-290.60469522818806 L -176.1385350538642,-289.51501584329174 L -170.24176325488975,-287.36876643020463 L -164.8072689689173,-284.23115969128895 L -160.00017655483924,-280.19753021960094 L -155.96654708315123,-275.39043780552294 L -152.82894034423555,-269.95594351955043 L -150.68269093114847,-264.059171720576 L -149.5930115462521,-257.8792928358009 Z" style="stroke-opacity: 1 !important; stroke-width: 3.5 !important; stroke-dasharray: none; animation: none; " fill="none" stroke="#3178c6" stroke-opacity=".3" stroke-width="2.5"/><g class="lock-icon" transform="translate(-185.45602067755493,-254.74168609688525) scale(.8)"><path d="M -4 -2 v-3 a 4 4 0 0 1 8 0 v3 M -5 -2 h10 v8 h-10 z" fill="none" stroke="#aaa" stroke-width="1.8"/></g><text class="skill-text" x="-185.45602067755493" y="-249.4083527635519" text-anchor="middle" style="font-size:16px;fill:#fff;">TS</text></g><g class="node skill revealed-node interactive unlocked energy" style="--skill-color:#e34f26" data-skill-id="HTML" data-name="HTML" data-color="#e34f26" data-level="90" data-rarity="common" data-parents="Frontend" onclick="handleClick(this)"><path class="hex-bg" d="M -78.75511506572943,-469.6207071641991 L -79.84479445062581,-463.440828279424 L -81.99104386371287,-457.54405648044957 L -85.12865060262857,-452.1095621944771 L -89.16228007431656,-447.30246978039906 L -93.96937248839461,-443.26884030871105 L -99.40386677436709,-440.13123356979537 L -105.30063857334152,-437.9849841567083 L -111.48051745811657,-436.89530477181194 L -117.75573093594797,-436.89530477181194 L -123.93560982072302,-437.98498415670826 L -129.83238161969746,-440.13123356979537 L -135.26687590566993,-443.26884030871105 L -140.073968319748,-447.30246978039906 L -144.10759779143598,-452.10956219447706 L -147.24520453035166,-457.54405648044957 L -149.39145394343873,-463.440828279424 L -150.48113332833512,-469.6207071641991 L -150.48113332833512,-475.89592064203043 L -149.39145394343873,-482.0757995268055 L -147.24520453035166,-487.97257132577994 L -144.10759779143598,-493.4070656117524 L -140.073968319748,-498.21415802583044 L -135.26687590566993,-502.24778749751846 L -129.83238161969746,-505.38539423643414 L -123.93560982072302,-507.53164364952124 L -117.75573093594797,-508.62132303441757 L -111.4805174581166,-508.62132303441757 L -105.30063857334154,-507.53164364952124 L -99.40386677436709,-505.38539423643414 L -93.96937248839464,-502.24778749751846 L -89.16228007431657,-498.21415802583044 L -85.12865060262857,-493.40706561175244 L -81.99104386371287,-487.97257132577994 L -79.84479445062581,-482.0757995268055 L -78.75511506572943,-475.89592064203043 Z" fill="#000"/><path class="hex-border" d="M -78.75511506572943,-469.6207071641991 L -79.84479445062581,-463.440828279424 L -81.99104386371287,-457.54405648044957 L -85.12865060262857,-452.1095621944771 L -89.16228007431656,-447.30246978039906 L -93.96937248839461,-443.26884030871105 L -99.40386677436709,-440.13123356979537 L -105.30063857334152,-437.9849841567083 L -111.48051745811657,-436.89530477181194 L -117.75573093594797,-436.89530477181194 L -123.93560982072302,-437.98498415670826 L -129.83238161969746,-440.13123356979537 L -135.26687590566993,-443.26884030871105 L -140.073968319748,-447.30246978039906 L -144.10759779143598,-452.10956219447706 L -147.24520453035166,-457.54405648044957 L -149.39145394343873,-463.440828279424 L -150.48113332833512,-469.6207071641991 L -150.48113332833512,-475.89592064203043 L -149.39145394343873,-482.0757995268055 L -147.24520453035166,-487.97257132577994 L -144.10759779143598,-493.4070656117524 L -140.073968319748,-498.21415802583044 L -135.26687590566993,-502.24778749751846 L -129.83238161969746,-505.38539423643414 L -123.93560982072302,-507.53164364952124 L -117.75573093594797,-508.62132303441757 L -111.4805174581166,-508.62132303441757 L -105.30063857334154,-507.53164364952124 L -99.40386677436709,-505.38539423643414 L -93.96937248839464,-502.24778749751846 L -89.16228007431657,-498.21415802583044 L -85.12865060262857,-493.40706561175244 L -81.99104386371287,-487.97257132577994 L -79.84479445062581,-482.0757995268055 L -78.75511506572943,-475.89592064203043 Z" style="stroke-opacity: 1 !important; stroke-width: 3.5 !important; stroke-dasharray: none; animation: none; " fill="none" stroke="#e34f26" stroke-opacity=".3" stroke-width="2.5"/><g class="lock-icon" transform="translate(-114.61812419703227,-472.75831390311475) scale(.8)"><path d="M -4 -2 v-3 a 4 4 0 0 1 8 0 v3 M -5 -2 h10 v8 h-10 z" fill="none" stroke="#aaa" stroke-width="1.8"/></g><text class="skill-text" x="-114.61812419703227" y="-467.42498056978144" text-anchor="middle" style="font-size:16px;fill:#fff;">HTML</text></g><g class="node skill revealed-node interactive unlocked energy" style="--skill-color:#1572b6" data-skill-id="CSS" data-name="CSS" data-color="#1572b6" data-level="85" data-rarity="common" data-parents="Frontend" onclick="handleClick(this)"><path class="hex-bg" d="M 145.79503873327204,-454.75831390311475 L 114.61812419703224,-436.75831390311475 L 83.44120966079245,-454.75831390311475 L 83.44120966079245,-490.75831390311475 L 114.61812419703224,-508.75831390311475 L 145.79503873327204,-490.75831390311475 Z" fill="#000"/><path class="hex-border" d="M 145.79503873327204,-454.75831390311475 L 114.61812419703224,-436.75831390311475 L 83.44120966079245,-454.75831390311475 L 83.44120966079245,-490.75831390311475 L 114.61812419703224,-508.75831390311475 L 145.79503873327204,-490.75831390311475 Z" style="stroke-opacity: 1 !important; stroke-width: 3.5 !important; stroke-dasharray: none; animation: none; " fill="none" stroke="#1572b6" stroke-opacity=".3" stroke-width="2.5"/><g class="lock-icon" transform="translate(114.61812419703224,-472.75831390311475) scale(.8)"><path d="M -4 -2 v-3 a 4 4 0 0 1 8 0 v3 M -5 -2 h10 v8 h-10 z" fill="none" stroke="#aaa" stroke-width="1.8"/></g><text class="skill-text" x="114.61812419703224" y="-467.42498056978144" text-anchor="middle" style="font-size:16px;fill:#fff;">CSS</text></g><g class="node skill revealed-node interactive unlocked energy" style="--skill-color:#3498db" data-skill-id="Astro" data-name="Astro" data-color="#3498db" data-level="90" data-rarity="common" data-parents="Frontend,Frameworks" onclick="handleClick(this)"><path class="hex-bg" d="M 284.23662733048826,-257.47797025897324 L 246.13150956397297,-235.47797025897324 L 208.02639179745768,-257.47797025897324 L 208.02639179745768,-301.47797025897324 L 246.13150956397297,-323.47797025897324 L 284.23662733048826,-301.47797025897324 Z" fill="#000"/><path class="hex-border" d="M 284.23662733048826,-257.47797025897324 L 246.13150956397297,-235.47797025897324 L 208.02639179745768,-257.47797025897324 L 208.02639179745768,-301.47797025897324 L 246.13150956397297,-323.47797025897324 L 284.23662733048826,-301.47797025897324 Z" style="stroke-opacity: 1 !important; stroke-width: 3.5 !important; stroke-dasharray: none; animation: none; " fill="none" stroke="#3498db" stroke-opacity=".3" stroke-width="2.5"/><g class="lock-icon" transform="translate(246.13150956397297,-279.47797025897324) scale(.8)"><path d="M -4 -2 v-3 a 4 4 0 0 1 8 0 v3 M -5 -2 h10 v8 h-10 z" fill="none" stroke="#aaa" stroke-width="1.8"/></g><text class="skill-text" x="246.13150956397297" y="-274.14463692563993" text-anchor="middle" style="font-size:16px;fill:#fff;">Astro</text></g><g class="node skill revealed-node interactive unlocked energy" style="--skill-color:#ffc131" data-skill-id="Tauri" data-name="Tauri" data-color="#ffc131" data-level="50" data-rarity="common" data-parents="Frameworks" onclick="handleClick(this)"><path class="hex-bg" d="M 330.46372458207117,131.5335479648444 L 292.35860681555585,153.5335479648444 L 254.25348904904055,131.53354796484442 L 254.25348904904052,87.53354796484442 L 292.35860681555585,65.5335479648444 L 330.46372458207117,87.53354796484442 Z" fill="#000"/><path class="hex-border" d="M 330.46372458207117,131.5335479648444 L 292.35860681555585,153.5335479648444 L 254.25348904904055,131.53354796484442 L 254.25348904904052,87.53354796484442 L 292.35860681555585,65.5335479648444 L 330.46372458207117,87.53354796484442 Z" style="stroke-opacity: 1 !important; stroke-width: 3.5 !important; stroke-dasharray: none; animation: none; " fill="none" stroke="#ffc131" stroke-opacity=".3" stroke-width="2.5"/><g class="lock-icon" transform="translate(292.35860681555585,109.5335479648444) scale(.8)"><path d="M -4 -2 v-3 a 4 4 0 0 1 8 0 v3 M -5 -2 h10 v8 h-10 z" fill="none" stroke="#aaa" stroke-width="1.8"/></g><text class="skill-text" x="292.35860681555585" y="114.86688129817773" text-anchor="middle" style="font-size:16px;fill:#fff;">Tauri</text></g><g class="node skill revealed-node interactive unlocked energy" style="--skill-color:#38bdf8" data-skill-id="Tailwind" data-name="Tailwind" data-color="#38bdf8" data-level="85" data-rarity="common" data-parents="Frameworks" onclick="handleClick(this)"><path class="hex-bg" d="M 561.8823296681303,-58.11615741069086 L 506.4567038259262,-26.11615741069086 L 451.0310779837221,-58.11615741069084 L 451.03107798372207,-122.11615741069085 L 506.4567038259262,-154.11615741069085 L 561.8823296681303,-122.11615741069085 Z" fill="#000"/><path class="hex-border" d="M 561.8823296681303,-58.11615741069086 L 506.4567038259262,-26.11615741069086 L 451.0310779837221,-58.11615741069084 L 451.03107798372207,-122.11615741069085 L 506.4567038259262,-154.11615741069085 L 561.8823296681303,-122.11615741069085 Z" style="stroke-opacity: 1 !important; stroke-width: 3.5 !important; stroke-dasharray: none; animation: none; " fill="none" stroke="#38bdf8" stroke-opacity=".3" stroke-width="2.5"/><g class="lock-icon" transform="translate(506.4567038259262,-90.11615741069086) scale(.8)"><path d="M -4 -2 v-3 a 4 4 0 0 1 8 0 v3 M -5 -2 h10 v8 h-10 z" fill="none" stroke="#aaa" stroke-width="1.8"/></g><text class="skill-text" x="506.4567038259262" y="-84.78282407735753" text-anchor="middle" style="font-size:16px;fill:#fff;">Tailwind</text></g><g class="node skill revealed-node interactive unlocked energy" style="--skill-color:#dea584" data-skill-id="Rust" data-name="Rust" data-color="#dea584" data-level="50" data-rarity="common" data-parents="Backend" onclick="handleClick(this)"><path class="hex-bg" d="M 420.077761067281,252.01654672150698 L 388.0348211272568,270.516546721507 L 355.9918811872326,252.01654672150698 L 355.9918811872326,215.01654672150698 L 388.0348211272568,196.51654672150698 L 420.077761067281,215.01654672150698 Z" fill="#000"/><path class="hex-border" d="M 420.077761067281,252.01654672150698 L 388.0348211272568,270.516546721507 L 355.9918811872326,252.01654672150698 L 355.9918811872326,215.01654672150698 L 388.0348211272568,196.51654672150698 L 420.077761067281,215.01654672150698 Z" style="stroke-opacity: 1 !important; stroke-width: 3.5 !important; stroke-dasharray: none; animation: none; " fill="none" stroke="#dea584" stroke-opacity=".3" stroke-width="2.5"/><g class="lock-icon" transform="translate(388.0348211272568,233.51654672150698) scale(.8)"><path d="M -4 -2 v-3 a 4 4 0 0 1 8 0 v3 M -5 -2 h10 v8 h-10 z" fill="none" stroke="#aaa" stroke-width="1.8"/></g><text class="skill-text" x="388.0348211272568" y="238.84988005484033" text-anchor="middle" style="font-size:16px;fill:#fff;">Rust</text></g><g class="node skill revealed-node interactive unlocked energy" style="--skill-color:#e67e22" data-skill-id="Python" data-name="Python" data-color="#e67e22" data-level="90" data-rarity="common" data-parents="Backend" onclick="handleClick(this)"><path class="hex-bg" d="M 148.00303539688605,445.2127907535913 L 146.6106672939629,453.10930266191497 L 143.86823748835167,460.64406662727123 L 139.8590733219594,467.58814265934717 L 134.70499121924695,473.7305385217802 L 128.5625953568139,478.88462062449264 L 121.61851932473795,482.8937847908849 L 114.08375535938173,485.6362145964962 L 106.18724345105804,487.0285826994193 L 98.16891511827349,487.0285826994193 L 90.2724032099498,485.6362145964962 L 82.7376392445936,482.8937847908849 L 75.79356321251765,478.88462062449264 L 69.65116735008456,473.7305385217802 L 64.49708524737214,467.58814265934717 L 60.487921080979866,460.64406662727123 L 57.74549127536862,453.109302661915 L 56.353123172445464,445.2127907535913 L 56.353123172445464,437.19446242080676 L 57.74549127536861,429.2979505124831 L 60.48792108097985,421.76318654712685 L 64.49708524737213,414.8191105150509 L 69.65116735008455,408.6767146526179 L 75.79356321251763,403.52263254990544 L 82.73763924459357,399.51346838351316 L 90.2724032099498,396.7710385779019 L 98.16891511827347,395.3786704749788 L 106.18724345105802,395.3786704749788 L 114.08375535938168,396.7710385779019 L 121.61851932473795,399.51346838351316 L 128.56259535681386,403.5226325499054 L 134.70499121924695,408.6767146526179 L 139.8590733219594,414.8191105150509 L 143.86823748835167,421.76318654712685 L 146.6106672939629,429.2979505124831 L 148.00303539688605,437.19446242080676 Z" fill="#000"/><path class="hex-border" d="M 148.00303539688605,445.2127907535913 L 146.6106672939629,453.10930266191497 L 143.86823748835167,460.64406662727123 L 139.8590733219594,467.58814265934717 L 134.70499121924695,473.7305385217802 L 128.5625953568139,478.88462062449264 L 121.61851932473795,482.8937847908849 L 114.08375535938173,485.6362145964962 L 106.18724345105804,487.0285826994193 L 98.16891511827349,487.0285826994193 L 90.2724032099498,485.6362145964962 L 82.7376392445936,482.8937847908849 L 75.79356321251765,478.88462062449264 L 69.65116735008456,473.7305385217802 L 64.49708524737214,467.58814265934717 L 60.487921080979866,460.64406662727123 L 57.74549127536862,453.109302661915 L 56.353123172445464,445.2127907535913 L 56.353123172445464,437.19446242080676 L 57.74549127536861,429.2979505124831 L 60.48792108097985,421.76318654712685 L 64.49708524737213,414.8191105150509 L 69.65116735008455,408.6767146526179 L 75.79356321251763,403.52263254990544 L 82.73763924459357,399.51346838351316 L 90.2724032099498,396.7710385779019 L 98.16891511827347,395.3786704749788 L 106.18724345105802,395.3786704749788 L 114.08375535938168,396.7710385779019 L 121.61851932473795,399.51346838351316 L 128.56259535681386,403.5226325499054 L 134.70499121924695,408.6767146526179 L 139.8590733219594,414.8191105150509 L 143.86823748835167,421.76318654712685 L 146.6106672939629,429.2979505124831 L 148.00303539688605,437.19446242080676 Z" style="stroke-opacity: 1 !important; stroke-width: 3.5 !important; stroke-dasharray: none; animation: none; " fill="none" stroke="#e67e22" stroke-opacity=".3" stroke-width="2.5"/><g class="lock-icon" transform="translate(102.17807928466576,441.20362658719904) scale(.8)"><path d="M -4 -2 v-3 a 4 4 0 0 1 8 0 v3 M -5 -2 h10 v8 h-10 z" fill="none" stroke="#aaa" stroke-width="1.8"/></g><text class="skill-text" x="102.17807928466576" y="446.53695992053235" text-anchor="middle" style="font-size:16px;fill:#fff;">Python</text></g><g class="node skill revealed-node interactive unlocked energy" style="--skill-color:#3ecf8e" data-skill-id="Supabase" data-name="Supabase" data-color="#3ecf8e" data-level="80" data-rarity="common" data-parents="Databases" onclick="handleClick(this)"><path class="hex-bg" d="M -35.63330205961685,468.0965949072379 L -37.35862775236945,477.88140314146506 L -40.7568559897573,487.21795848984124 L -45.724733326373816,495.822574442631 L -52.11131332321313,503.43380409825454 L -59.722542978836714,509.82038409509386 L -68.32715893162647,514.7882614317103 L -77.66371428000265,518.1864896690983 L -87.44852251422982,519.9118153618508 L -97.38427718746286,519.9118153618508 L -107.16908542169003,518.1864896690983 L -116.50564077006621,514.7882614317105 L -125.11025672285595,509.8203840950939 L -132.72148637847954,503.43380409825454 L -139.10806637531886,495.822574442631 L -144.0759437119354,487.21795848984124 L -147.47417194932325,477.88140314146506 L -149.19949764207584,468.0965949072379 L -149.19949764207584,458.16084023400487 L -147.47417194932325,448.3760319997777 L -144.0759437119354,439.0394766514015 L -139.10806637531888,430.4348606986117 L -132.72148637847957,422.82363104298815 L -125.110256722856,416.43705104614884 L -116.50564077006624,411.4691737095323 L -107.16908542169003,408.07094547214444 L -97.38427718746287,406.3456197793919 L -87.44852251422985,406.3456197793919 L -77.6637142800027,408.07094547214444 L -68.32715893162647,411.4691737095323 L -59.722542978836756,416.4370510461488 L -52.111313323213146,422.82363104298815 L -45.72473332637383,430.4348606986117 L -40.75685598975729,439.0394766514015 L -37.35862775236945,448.3760319997777 L -35.63330205961685,458.1608402340048 Z" fill="#000"/><path class="hex-border" d="M -35.63330205961685,468.0965949072379 L -37.35862775236945,477.88140314146506 L -40.7568559897573,487.21795848984124 L -45.724733326373816,495.822574442631 L -52.11131332321313,503.43380409825454 L -59.722542978836714,509.82038409509386 L -68.32715893162647,514.7882614317103 L -77.66371428000265,518.1864896690983 L -87.44852251422982,519.9118153618508 L -97.38427718746286,519.9118153618508 L -107.16908542169003,518.1864896690983 L -116.50564077006621,514.7882614317105 L -125.11025672285595,509.8203840950939 L -132.72148637847954,503.43380409825454 L -139.10806637531886,495.822574442631 L -144.0759437119354,487.21795848984124 L -147.47417194932325,477.88140314146506 L -149.19949764207584,468.0965949072379 L -149.19949764207584,458.16084023400487 L -147.47417194932325,448.3760319997777 L -144.0759437119354,439.0394766514015 L -139.10806637531888,430.4348606986117 L -132.72148637847957,422.82363104298815 L -125.110256722856,416.43705104614884 L -116.50564077006624,411.4691737095323 L -107.16908542169003,408.07094547214444 L -97.38427718746287,406.3456197793919 L -87.44852251422985,406.3456197793919 L -77.6637142800027,408.07094547214444 L -68.32715893162647,411.4691737095323 L -59.722542978836756,416.4370510461488 L -52.111313323213146,422.82363104298815 L -45.72473332637383,430.4348606986117 L -40.75685598975729,439.0394766514015 L -37.35862775236945,448.3760319997777 L -35.63330205961685,458.1608402340048 Z" style="stroke-opacity: 1 !important; stroke-width: 3.5 !important; stroke-dasharray: none; animation: none; " fill="none" stroke="#3ecf8e" stroke-opacity=".3" stroke-width="2.5"/><g class="lock-icon" transform="translate(-92.41639985084635,463.12871757062135) scale(.8)"><path d="M -4 -2 v-3 a 4 4 0 0 1 8 0 v3 M -5 -2 h10 v8 h-10 z" fill="none" stroke="#aaa" stroke-width="1.8"/></g><text class="skill-text" x="-92.41639985084635" y="468.46205090395466" text-anchor="middle" style="font-size:16px;fill:#fff;">Supabase</text></g><g class="node skill revealed-node interactive unlocked energy" style="--skill-color:#ff00a0" data-skill-id="SurrealDB" data-name="SurrealDB" data-color="#ff00a0" data-level="50" data-rarity="common" data-parents="Databases" onclick="handleClick(this)"><path class="hex-bg" d="M -349.14308063631535,236.4986753961859 L -351.050019559884,247.31346344454224 L -354.80595603278636,257.6328140927475 L -360.2967678258888,267.1431790931993 L -367.3556194013428,275.55559081783593 L -375.7680311259794,282.6144423932899 L -385.27839612643123,288.10525418639236 L -395.59774677463645,291.8611906592947 L -406.4125348229928,293.76812958286337 L -417.39415840919776,293.76812958286337 L -428.2089464575541,291.8611906592947 L -438.52829710575935,288.10525418639236 L -448.0386621062112,282.6144423932899 L -456.4510738308478,275.55559081783593 L -463.50992540630176,267.14317909319936 L -469.0007371994042,257.63281409274754 L -472.7566736723066,247.31346344454224 L -474.66361259587524,236.4986753961859 L -474.66361259587524,225.51705180998098 L -472.7566736723066,214.70226376162464 L -469.0007371994042,204.38291311341936 L -463.50992540630176,194.8725481129675 L -456.4510738308478,186.46013638833097 L -448.03866210621123,179.40128481287695 L -438.5282971057594,173.91047301977449 L -428.2089464575541,170.15453654687212 L -417.39415840919776,168.24759762330345 L -406.4125348229928,168.24759762330345 L -395.5977467746365,170.15453654687212 L -385.27839612643123,173.91047301977449 L -375.7680311259794,179.4012848128769 L -367.3556194013428,186.4601363883309 L -360.2967678258888,194.87254811296748 L -354.80595603278636,204.38291311341936 L -351.050019559884,214.7022637616246 L -349.14308063631535,225.51705180998096 Z" fill="#000"/><path class="hex-border" d="M -349.14308063631535,236.4986753961859 L -351.050019559884,247.31346344454224 L -354.80595603278636,257.6328140927475 L -360.2967678258888,267.1431790931993 L -367.3556194013428,275.55559081783593 L -375.7680311259794,282.6144423932899 L -385.27839612643123,288.10525418639236 L -395.59774677463645,291.8611906592947 L -406.4125348229928,293.76812958286337 L -417.39415840919776,293.76812958286337 L -428.2089464575541,291.8611906592947 L -438.52829710575935,288.10525418639236 L -448.0386621062112,282.6144423932899 L -456.4510738308478,275.55559081783593 L -463.50992540630176,267.14317909319936 L -469.0007371994042,257.63281409274754 L -472.7566736723066,247.31346344454224 L -474.66361259587524,236.4986753961859 L -474.66361259587524,225.51705180998098 L -472.7566736723066,214.70226376162464 L -469.0007371994042,204.38291311341936 L -463.50992540630176,194.8725481129675 L -456.4510738308478,186.46013638833097 L -448.03866210621123,179.40128481287695 L -438.5282971057594,173.91047301977449 L -428.2089464575541,170.15453654687212 L -417.39415840919776,168.24759762330345 L -406.4125348229928,168.24759762330345 L -395.5977467746365,170.15453654687212 L -385.27839612643123,173.91047301977449 L -375.7680311259794,179.4012848128769 L -367.3556194013428,186.4601363883309 L -360.2967678258888,194.87254811296748 L -354.80595603278636,204.38291311341936 L -351.050019559884,214.7022637616246 L -349.14308063631535,225.51705180998096 Z" style="stroke-opacity: 1 !important; stroke-width: 3.5 !important; stroke-dasharray: none; animation: none; " fill="none" stroke="#ff00a0" stroke-opacity=".3" stroke-width="2.5"/><g class="lock-icon" transform="translate(-411.9033466160953,231.00786360308342) scale(.8)"><path d="M -4 -2 v-3 a 4 4 0 0 1 8 0 v3 M -5 -2 h10 v8 h-10 z" fill="none" stroke="#aaa" stroke-width="1.8"/></g><text class="skill-text" x="-411.9033466160953" y="236.34119693641676" text-anchor="middle" style="font-size:16px;fill:#fff;">SurrealDB</text></g><g class="node skill revealed-node interactive unlocked energy" style="--skill-color:#2ecc71" data-skill-id="Bun" data-name="Bun" data-color="#2ecc71" data-level="95" data-rarity="common" data-parents="Tools" onclick="handleClick(this)"><path class="hex-bg" d="M -408.6330344697623,36.277721750784785 L -409.72271385465865,42.45760063555984 L -411.86896326774576,48.35437243453427 L -415.00657000666143,53.788866720506746 L -419.04019947834945,58.5959591345848 L -423.8472918924275,62.6295886062728 L -429.28178617839995,65.76719534518848 L -435.1785579773744,67.91344475827555 L -441.35843686214946,69.00312414317193 L -447.6336503399808,69.00312414317193 L -453.8135292247559,67.91344475827555 L -459.7103010237303,65.7671953451885 L -465.1447953097028,62.629588606272804 L -469.9518877237808,58.5959591345848 L -473.98551719546884,53.78886672050676 L -477.1231239343845,48.354372434534284 L -479.26937334747157,42.45760063555985 L -480.35905273236796,36.277721750784785 L -480.35905273236796,30.002508272953406 L -479.2693733474716,23.82262938817836 L -477.1231239343845,17.92585758920392 L -473.98551719546884,12.49136330323143 L -469.9518877237809,7.684270889153396 L -465.14479530970283,3.650641417465394 L -459.7103010237303,0.5130346785497011 L -453.8135292247559,-1.6332147345373684 L -447.6336503399808,-2.7228941194337466 L -441.35843686214946,-2.7228941194337466 L -435.1785579773744,-1.6332147345373684 L -429.28178617839995,0.513034678549694 L -423.8472918924275,3.6506414174653656 L -419.04019947834945,7.684270889153375 L -415.00657000666143,12.491363303231417 L -411.86896326774576,17.925857589203922 L -409.72271385465865,23.82262938817835 L -408.6330344697623,30.002508272953392 Z" fill="#000"/><path class="hex-border" d="M -408.6330344697623,36.277721750784785 L -409.72271385465865,42.45760063555984 L -411.86896326774576,48.35437243453427 L -415.00657000666143,53.788866720506746 L -419.04019947834945,58.5959591345848 L -423.8472918924275,62.6295886062728 L -429.28178617839995,65.76719534518848 L -435.1785579773744,67.91344475827555 L -441.35843686214946,69.00312414317193 L -447.6336503399808,69.00312414317193 L -453.8135292247559,67.91344475827555 L -459.7103010237303,65.7671953451885 L -465.1447953097028,62.629588606272804 L -469.9518877237808,58.5959591345848 L -473.98551719546884,53.78886672050676 L -477.1231239343845,48.354372434534284 L -479.26937334747157,42.45760063555985 L -480.35905273236796,36.277721750784785 L -480.35905273236796,30.002508272953406 L -479.2693733474716,23.82262938817836 L -477.1231239343845,17.92585758920392 L -473.98551719546884,12.49136330323143 L -469.9518877237809,7.684270889153396 L -465.14479530970283,3.650641417465394 L -459.7103010237303,0.5130346785497011 L -453.8135292247559,-1.6332147345373684 L -447.6336503399808,-2.7228941194337466 L -441.35843686214946,-2.7228941194337466 L -435.1785579773744,-1.6332147345373684 L -429.28178617839995,0.513034678549694 L -423.8472918924275,3.6506414174653656 L -419.04019947834945,7.684270889153375 L -415.00657000666143,12.491363303231417 L -411.86896326774576,17.925857589203922 L -409.72271385465865,23.82262938817835 L -408.6330344697623,30.002508272953392 Z" style="stroke-opacity: 1 !important; stroke-width: 3.5 !important; stroke-dasharray: none; animation: flow 1s linear infinite normal; " fill="none" stroke="#2ecc71" stroke-opacity=".3" stroke-width="2.5"/><g class="lock-icon" transform="translate(-444.49604360106514,33.14011501186909) scale(.8)"><path d="M -4 -2 v-3 a 4 4 0 0 1 8 0 v3 M -5 -2 h10 v8 h-10 z" fill="none" stroke="#aaa" stroke-width="1.8"/></g><text class="skill-text" x="-444.49604360106514" y="38.47344834520243" text-anchor="middle" style="font-size:16px;fill:#fff;">Bun</text></g><g class="node skill revealed-node interactive unlocked energy" style="--skill-color:#2ecc71" data-skill-id="Git" data-name="Git" data-color="#2ecc71" data-level="90" data-rarity="common" data-parents="Tools" onclick="handleClick(this)"><path class="hex-bg" d="M -304.26257321113366,-284.94152863228487 L -305.35225259603,-278.7616497475098 L -307.4985020091171,-272.86487794853537 L -310.63610874803277,-267.4303836625629 L -314.6697382197208,-262.62329124848486 L -319.47683063379884,-258.58966177679685 L -324.9113249197713,-255.45205503788117 L -330.80809671874573,-253.3058056247941 L -336.9879756035208,-252.2161262398977 L -343.26318908135215,-252.2161262398977 L -349.4430679661272,-253.3058056247941 L -355.33983976510166,-255.45205503788117 L -360.7743340510741,-258.58966177679685 L -365.58142646515216,-262.62329124848486 L -369.6150559368402,-267.43038366256286 L -372.75266267575586,-272.86487794853537 L -374.8989120888429,-278.7616497475098 L -375.9885914737393,-284.94152863228487 L -375.9885914737393,-291.21674211011623 L -374.89891208884296,-297.3966209948913 L -372.75266267575586,-303.29339279386573 L -369.6150559368402,-308.7278870798382 L -365.5814264651522,-313.53497949391624 L -360.77433405107416,-317.56860896560426 L -355.33983976510166,-320.70621570451993 L -349.4430679661272,-322.85246511760704 L -343.26318908135215,-323.94214450250337 L -336.9879756035208,-323.94214450250337 L -330.80809671874573,-322.85246511760704 L -324.9113249197713,-320.70621570451993 L -319.47683063379884,-317.56860896560426 L -314.6697382197208,-313.53497949391624 L -310.63610874803277,-308.72788707983824 L -307.4985020091171,-303.29339279386573 L -305.35225259603,-297.3966209948913 L -304.26257321113366,-291.21674211011623 Z" fill="#000"/><path class="hex-border" d="M -304.26257321113366,-284.94152863228487 L -305.35225259603,-278.7616497475098 L -307.4985020091171,-272.86487794853537 L -310.63610874803277,-267.4303836625629 L -314.6697382197208,-262.62329124848486 L -319.47683063379884,-258.58966177679685 L -324.9113249197713,-255.45205503788117 L -330.80809671874573,-253.3058056247941 L -336.9879756035208,-252.2161262398977 L -343.26318908135215,-252.2161262398977 L -349.4430679661272,-253.3058056247941 L -355.33983976510166,-255.45205503788117 L -360.7743340510741,-258.58966177679685 L -365.58142646515216,-262.62329124848486 L -369.6150559368402,-267.43038366256286 L -372.75266267575586,-272.86487794853537 L -374.8989120888429,-278.7616497475098 L -375.9885914737393,-284.94152863228487 L -375.9885914737393,-291.21674211011623 L -374.89891208884296,-297.3966209948913 L -372.75266267575586,-303.29339279386573 L -369.6150559368402,-308.7278870798382 L -365.5814264651522,-313.53497949391624 L -360.77433405107416,-317.56860896560426 L -355.33983976510166,-320.70621570451993 L -349.4430679661272,-322.85246511760704 L -343.26318908135215,-323.94214450250337 L -336.9879756035208,-323.94214450250337 L -330.80809671874573,-322.85246511760704 L -324.9113249197713,-320.70621570451993 L -319.47683063379884,-317.56860896560426 L -314.6697382197208,-313.53497949391624 L -310.63610874803277,-308.72788707983824 L -307.4985020091171,-303.29339279386573 L -305.35225259603,-297.3966209948913 L -304.26257321113366,-291.21674211011623 Z" style="stroke-opacity: 1 !important; stroke-width: 3.5 !important; stroke-dasharray: none; animation: none; " fill="none" stroke="#2ecc71" stroke-opacity=".3" stroke-width="2.5"/><g class="lock-icon" transform="translate(-340.1255823424365,-288.07913537120055) scale(.8)"><path d="M -4 -2 v-3 a 4 4 0 0 1 8 0 v3 M -5 -2 h10 v8 h-10 z" fill="none" stroke="#aaa" stroke-width="1.8"/></g><text class="skill-text" x="-340.1255823424365" y="-282.74580203786724" text-anchor="middle" style="font-size:16px;fill:#fff;">Git</text></g><script><![CDATA[
function handleClick(e){const id=e.getAttribute('data-skill-id'),n=e.getAttribute('data-name'),c=e.getAttribute('data-color')||'#58a6ff',lvl=e.getAttribute('data-level'),rar=e.getAttribute('data-rarity');if(e.id==='core-node'){document.querySelectorAll('.cat-node').forEach(el=>el.classList.replace('hidden-node','revealed-node'));document.querySelectorAll('.cat-line').forEach(el=>el.classList.replace('hidden-line','revealed-line'));return;}if(e.classList.contains('cat-node')){const cN=n;document.querySelectorAll('.skill').forEach(el=>{if(el.getAttribute('data-parents').split(',').includes(cN))el.classList.replace('hidden-node','revealed-node');});document.querySelectorAll('.skill-line-base[data-parent="'+cN+'"]').forEach(el=>el.classList.replace('hidden-line','revealed-line'));return;}if(e.classList.contains('skill')){if(e.classList.contains('locked')){e.classList.remove('locked');e.classList.add('unlocked','unlocked-anim');document.querySelectorAll('[data-link="'+id+'"]').forEach(p=>{p.style.stroke=c;p.style.strokeWidth='4.5';p.classList.add('energy');p.style.strokeOpacity='1';if(p.classList.contains('join-line'))p.classList.replace('hidden-line','revealed-line');});document.querySelectorAll('.join-line[data-source="'+id+'"], .join-label[data-source="'+id+'"]').forEach(p=>p.classList.replace('hidden-line','revealed-line'));}}}

const svgE = document.documentElement;
let isP = false, sPt = {x:0, y:0};
let vB = {x: -574.4960436010651, y: -602.7583139031148, w: 1210.9527474269912, h: 1195.887031473736};
const defaultHbW = 1210.9527474269912, defaultHbH = 1195.887031473736;

svgE.addEventListener('mousedown', e => {
    isP = true; sPt = { x: e.clientX, y: e.clientY };
    svgE.style.cursor = "grabbing";
});
svgE.addEventListener('mousemove', e => {
    if(!isP) return;
    vB.x -= (e.clientX - sPt.x) * (vB.w / svgE.clientWidth);
    vB.y -= (e.clientY - sPt.y) * (vB.h / svgE.clientHeight);
    svgE.setAttribute('viewBox', vB.x+' '+vB.y+' '+vB.w+' '+vB.h);
    sPt = { x: e.clientX, y: e.clientY };
});
svgE.addEventListener('mouseup', () => { isP = false; svgE.style.cursor = "default"; });
svgE.addEventListener('mouseleave', () => { isP = false; });
svgE.addEventListener('wheel', e => {
    e.preventDefault();
    const zf = Math.exp((e.deltaY < 0 ? 1 : -1) * 0.1);
    const mx = vB.x + (e.clientX / svgE.clientWidth) * vB.w;
    const my = vB.y + (e.clientY / svgE.clientHeight) * vB.h;
    vB.w /= zf; vB.h /= zf;
    vB.x = mx - (vB.w * (e.clientX / svgE.clientWidth));
    vB.y = my - (vB.h * (e.clientY / svgE.clientHeight));
    svgE.setAttribute('viewBox', vB.x+' '+vB.y+' '+vB.w+' '+vB.h);
}, {passive: false});
]]></script></svg>